# unit cylinder r=0.5 h=1 axis=y, outward winding
v 0.500000 -0.500000 0.000000
v 0.497592 -0.500000 0.049009
v 0.490393 -0.500000 0.097545
v 0.478470 -0.500000 0.145142
v 0.461940 -0.500000 0.191342
v 0.440961 -0.500000 0.235698
v 0.415735 -0.500000 0.277785
v 0.386505 -0.500000 0.317197
v 0.353553 -0.500000 0.353553
v 0.317197 -0.500000 0.386505
v 0.277785 -0.500000 0.415735
v 0.235698 -0.500000 0.440961
v 0.191342 -0.500000 0.461940
v 0.145142 -0.500000 0.478470
v 0.097545 -0.500000 0.490393
v 0.049009 -0.500000 0.497592
v 0.000000 -0.500000 0.500000
v -0.049009 -0.500000 0.497592
v -0.097545 -0.500000 0.490393
v -0.145142 -0.500000 0.478470
v -0.191342 -0.500000 0.461940
v -0.235698 -0.500000 0.440961
v -0.277785 -0.500000 0.415735
v -0.317197 -0.500000 0.386505
v -0.353553 -0.500000 0.353553
v -0.386505 -0.500000 0.317197
v -0.415735 -0.500000 0.277785
v -0.440961 -0.500000 0.235698
v -0.461940 -0.500000 0.191342
v -0.478470 -0.500000 0.145142
v -0.490393 -0.500000 0.097545
v -0.497592 -0.500000 0.049009
v -0.500000 -0.500000 0.000000
v -0.497592 -0.500000 -0.049009
v -0.490393 -0.500000 -0.097545
v -0.478470 -0.500000 -0.145142
v -0.461940 -0.500000 -0.191342
v -0.440961 -0.500000 -0.235698
v -0.415735 -0.500000 -0.277785
v -0.386505 -0.500000 -0.317197
v -0.353553 -0.500000 -0.353553
v -0.317197 -0.500000 -0.386505
v -0.277785 -0.500000 -0.415735
v -0.235698 -0.500000 -0.440961
v -0.191342 -0.500000 -0.461940
v -0.145142 -0.500000 -0.478470
v -0.097545 -0.500000 -0.490393
v -0.049009 -0.500000 -0.497592
v -0.000000 -0.500000 -0.500000
v 0.049009 -0.500000 -0.497592
v 0.097545 -0.500000 -0.490393
v 0.145142 -0.500000 -0.478470
v 0.191342 -0.500000 -0.461940
v 0.235698 -0.500000 -0.440961
v 0.277785 -0.500000 -0.415735
v 0.317197 -0.500000 -0.386505
v 0.353553 -0.500000 -0.353553
v 0.386505 -0.500000 -0.317197
v 0.415735 -0.500000 -0.277785
v 0.440961 -0.500000 -0.235698
v 0.461940 -0.500000 -0.191342
v 0.478470 -0.500000 -0.145142
v 0.490393 -0.500000 -0.097545
v 0.497592 -0.500000 -0.049009
v 0.500000 0.500000 0.000000
v 0.497592 0.500000 0.049009
v 0.490393 0.500000 0.097545
v 0.478470 0.500000 0.145142
v 0.461940 0.500000 0.191342
v 0.440961 0.500000 0.235698
v 0.415735 0.500000 0.277785
v 0.386505 0.500000 0.317197
v 0.353553 0.500000 0.353553
v 0.317197 0.500000 0.386505
v 0.277785 0.500000 0.415735
v 0.235698 0.500000 0.440961
v 0.191342 0.500000 0.461940
v 0.145142 0.500000 0.478470
v 0.097545 0.500000 0.490393
v 0.049009 0.500000 0.497592
v 0.000000 0.500000 0.500000
v -0.049009 0.500000 0.497592
v -0.097545 0.500000 0.490393
v -0.145142 0.500000 0.478470
v -0.191342 0.500000 0.461940
v -0.235698 0.500000 0.440961
v -0.277785 0.500000 0.415735
v -0.317197 0.500000 0.386505
v -0.353553 0.500000 0.353553
v -0.386505 0.500000 0.317197
v -0.415735 0.500000 0.277785
v -0.440961 0.500000 0.235698
v -0.461940 0.500000 0.191342
v -0.478470 0.500000 0.145142
v -0.490393 0.500000 0.097545
v -0.497592 0.500000 0.049009
v -0.500000 0.500000 0.000000
v -0.497592 0.500000 -0.049009
v -0.490393 0.500000 -0.097545
v -0.478470 0.500000 -0.145142
v -0.461940 0.500000 -0.191342
v -0.440961 0.500000 -0.235698
v -0.415735 0.500000 -0.277785
v -0.386505 0.500000 -0.317197
v -0.353553 0.500000 -0.353553
v -0.317197 0.500000 -0.386505
v -0.277785 0.500000 -0.415735
v -0.235698 0.500000 -0.440961
v -0.191342 0.500000 -0.461940
v -0.145142 0.500000 -0.478470
v -0.097545 0.500000 -0.490393
v -0.049009 0.500000 -0.497592
v -0.000000 0.500000 -0.500000
v 0.049009 0.500000 -0.497592
v 0.097545 0.500000 -0.490393
v 0.145142 0.500000 -0.478470
v 0.191342 0.500000 -0.461940
v 0.235698 0.500000 -0.440961
v 0.277785 0.500000 -0.415735
v 0.317197 0.500000 -0.386505
v 0.353553 0.500000 -0.353553
v 0.386505 0.500000 -0.317197
v 0.415735 0.500000 -0.277785
v 0.440961 0.500000 -0.235698
v 0.461940 0.500000 -0.191342
v 0.478470 0.500000 -0.145142
v 0.490393 0.500000 -0.097545
v 0.497592 0.500000 -0.049009
v 0.000000 -0.500000 0.000000
v 0.000000 0.500000 0.000000
f 1 66 2
f 1 65 66
f 129 1 2
f 130 66 65
f 2 67 3
f 2 66 67
f 129 2 3
f 130 67 66
f 3 68 4
f 3 67 68
f 129 3 4
f 130 68 67
f 4 69 5
f 4 68 69
f 129 4 5
f 130 69 68
f 5 70 6
f 5 69 70
f 129 5 6
f 130 70 69
f 6 71 7
f 6 70 71
f 129 6 7
f 130 71 70
f 7 72 8
f 7 71 72
f 129 7 8
f 130 72 71
f 8 73 9
f 8 72 73
f 129 8 9
f 130 73 72
f 9 74 10
f 9 73 74
f 129 9 10
f 130 74 73
f 10 75 11
f 10 74 75
f 129 10 11
f 130 75 74
f 11 76 12
f 11 75 76
f 129 11 12
f 130 76 75
f 12 77 13
f 12 76 77
f 129 12 13
f 130 77 76
f 13 78 14
f 13 77 78
f 129 13 14
f 130 78 77
f 14 79 15
f 14 78 79
f 129 14 15
f 130 79 78
f 15 80 16
f 15 79 80
f 129 15 16
f 130 80 79
f 16 81 17
f 16 80 81
f 129 16 17
f 130 81 80
f 17 82 18
f 17 81 82
f 129 17 18
f 130 82 81
f 18 83 19
f 18 82 83
f 129 18 19
f 130 83 82
f 19 84 20
f 19 83 84
f 129 19 20
f 130 84 83
f 20 85 21
f 20 84 85
f 129 20 21
f 130 85 84
f 21 86 22
f 21 85 86
f 129 21 22
f 130 86 85
f 22 87 23
f 22 86 87
f 129 22 23
f 130 87 86
f 23 88 24
f 23 87 88
f 129 23 24
f 130 88 87
f 24 89 25
f 24 88 89
f 129 24 25
f 130 89 88
f 25 90 26
f 25 89 90
f 129 25 26
f 130 90 89
f 26 91 27
f 26 90 91
f 129 26 27
f 130 91 90
f 27 92 28
f 27 91 92
f 129 27 28
f 130 92 91
f 28 93 29
f 28 92 93
f 129 28 29
f 130 93 92
f 29 94 30
f 29 93 94
f 129 29 30
f 130 94 93
f 30 95 31
f 30 94 95
f 129 30 31
f 130 95 94
f 31 96 32
f 31 95 96
f 129 31 32
f 130 96 95
f 32 97 33
f 32 96 97
f 129 32 33
f 130 97 96
f 33 98 34
f 33 97 98
f 129 33 34
f 130 98 97
f 34 99 35
f 34 98 99
f 129 34 35
f 130 99 98
f 35 100 36
f 35 99 100
f 129 35 36
f 130 100 99
f 36 101 37
f 36 100 101
f 129 36 37
f 130 101 100
f 37 102 38
f 37 101 102
f 129 37 38
f 130 102 101
f 38 103 39
f 38 102 103
f 129 38 39
f 130 103 102
f 39 104 40
f 39 103 104
f 129 39 40
f 130 104 103
f 40 105 41
f 40 104 105
f 129 40 41
f 130 105 104
f 41 106 42
f 41 105 106
f 129 41 42
f 130 106 105
f 42 107 43
f 42 106 107
f 129 42 43
f 130 107 106
f 43 108 44
f 43 107 108
f 129 43 44
f 130 108 107
f 44 109 45
f 44 108 109
f 129 44 45
f 130 109 108
f 45 110 46
f 45 109 110
f 129 45 46
f 130 110 109
f 46 111 47
f 46 110 111
f 129 46 47
f 130 111 110
f 47 112 48
f 47 111 112
f 129 47 48
f 130 112 111
f 48 113 49
f 48 112 113
f 129 48 49
f 130 113 112
f 49 114 50
f 49 113 114
f 129 49 50
f 130 114 113
f 50 115 51
f 50 114 115
f 129 50 51
f 130 115 114
f 51 116 52
f 51 115 116
f 129 51 52
f 130 116 115
f 52 117 53
f 52 116 117
f 129 52 53
f 130 117 116
f 53 118 54
f 53 117 118
f 129 53 54
f 130 118 117
f 54 119 55
f 54 118 119
f 129 54 55
f 130 119 118
f 55 120 56
f 55 119 120
f 129 55 56
f 130 120 119
f 56 121 57
f 56 120 121
f 129 56 57
f 130 121 120
f 57 122 58
f 57 121 122
f 129 57 58
f 130 122 121
f 58 123 59
f 58 122 123
f 129 58 59
f 130 123 122
f 59 124 60
f 59 123 124
f 129 59 60
f 130 124 123
f 60 125 61
f 60 124 125
f 129 60 61
f 130 125 124
f 61 126 62
f 61 125 126
f 129 61 62
f 130 126 125
f 62 127 63
f 62 126 127
f 129 62 63
f 130 127 126
f 63 128 64
f 63 127 128
f 129 63 64
f 130 128 127
f 64 65 1
f 64 128 65
f 129 64 1
f 130 65 128
